<svg xmlns="http://www.w3.org/2000/svg" width="1280" fill="none" height="1280">
  <path
    d="M1044.67 798.873c1.01 0 2.02-.01 3.06-.01 1.67 0 1.67 0 3.38.01 1.76-.01 1.76-.01 3.55-.01h9.64c3.36.01 6.72 0 10.07 0 5.64 0 11.28 0 16.92.01 6.53 0 13.06 0 19.59-.01h26.82c3.73 0 7.46 0 11.19.01 1.11 0 2.23-.01 3.38-.01 1.52.01 1.52.01 3.06.01h2.68c1.99.13 1.99.13 2.99 1.13.1 2.34.14 4.66.13 7 .01.75.01 1.49.01 2.25.01 2.51.01 5.01.01 7.52 0 1.78 0 3.57.01 5.36.01 4.88.01 9.75.01 14.63 0 4.06 0 8.13.01 12.2 0 9.6.01 19.2.01 28.8 0 9.9.01 19.8.02 29.7.01 8.5.02 17 .02 25.5 0 5.07 0 10.15.01 15.23.01 4.78.01 9.56.01 14.34-.01 1.75 0 3.5 0 5.25.03 8.31.03 16.15-2.25 24.22-.21 1.7-.38 3.41-.5 5.12-.37 4.17-1.21 7.87-2.5 11.88l-.59 2.19c-2 7.33-5.09 13.99-8.41 20.81-.84 1.76-.84 1.76-1.7 3.55-5.56 11.43-12.09 22.68-20.3 32.45h-2v2h-2c-.26.58-.51 1.16-.78 1.76-1.32 2.42-2.77 4.05-4.72 5.99-.61.61-1.22 1.22-1.84 1.86-1.66 1.39-1.66 1.39-3.66 1.39v2h-2v2c-1.68 1.5-1.68 1.5-3.87 3.12-.72.54-1.44 1.08-2.18 1.63-1.95 1.25-1.95 1.25-3.95 1.25v2a107.14 107.14 0 0 1-6.94 4.62c-.71.44-1.43.89-2.16 1.34-10.69 6.47-21.8 11.84-33.9 15.04-1.67.64-3.34 1.31-5 2-4.16 1.51-8.12 2.44-12.5 3.06-4.62.66-4.62.66-9.22 1.46-3.69.54-7.3.62-11.02.6-1.14.01-1.14.01-2.3.01h-13.07c-4.94.01-9.88 0-14.82 0H945.56c-10.03-.01-20.07-.01-30.11 0H874.18c-4.83.01-9.66 0-14.49 0h-5.34c-2.41 0-4.83 0-7.25-.01-1.07.01-1.07.01-2.16.01-4.83-.02-4.83-.02-5.94-1.13-.1-1.58-.13-3.17-.13-4.75v-10.15c-.01-3.27-.01-6.54 0-9.81v-10.24c-.01-5.73 0-11.46 0-17.2.01-6.64 0-13.27 0-19.91-.01-5.69-.01-11.38 0-17.07 0-3.4 0-6.8-.01-10.2 0-3.79.01-7.59.01-11.38v-9.27c.13-2.02.13-2.02 1.13-3.02 2.19-.11 4.38-.14 6.58-.14 1.04-.01 1.04-.01 2.1-.01 2.35-.01 4.7-.01 7.05-.01 1.68-.01 3.35-.01 5.03-.02 3.62-.01 7.24-.02 10.86-.02 5.74-.01 11.47-.03 17.2-.06 16.31-.06 32.61-.11 48.92-.14 9-.02 18-.05 26.99-.09 4.76-.02 9.52-.04 14.28-.04 4.49 0 8.98-.02 13.46-.05h4.92c12.45.02 24.17-.31 33.61-9.42 8.46-9 7.3-21.17 7.3-32.71l.03-5.05c.02-3.61.03-7.22.04-10.83a4885 4885 0 0 1 .06-17.12c.04-9.01.08-18.03.1-27.05.05-16.17.12-32.34.19-48.51l.06-17.03c.01-3.52.02-7.04.04-10.56 0-1.64.01-3.28.01-4.91 0-2.23.01-4.46.03-6.68 0-1.25 0-2.5.01-3.78.22-4.53 1.71-3.9 5.8-3.9ZM124.67 798.873c1.01 0 2.02-.01 3.06-.01 1.12 0 2.23.01 3.38.01 1.76-.01 1.76-.01 3.55-.01h9.64c3.36.01 6.72 0 10.07 0 5.64 0 11.28 0 16.92.01 6.53 0 13.06 0 19.59-.01h26.82c3.73 0 7.46 0 11.19.01 1.11 0 2.23-.01 3.38-.01 1.52.01 1.52.01 3.06.01h2.68c1.99.13 1.99.13 2.99 1.13.1 2.19.13 4.39.14 6.59 0 .69 0 1.39.01 2.11.01 2.35.01 4.7.01 7.06 0 1.68.01 3.36.01 5.04.02 3.63.02 7.25.03 10.88.01 5.74.03 11.48.05 17.22.07 16.33.12 32.66.15 48.99.02 9.01.05 18.02.09 27.03.02 4.77.04 9.53.04 14.3 0 4.49.02 8.98.04 13.48.01 1.64.01 3.28.01 4.93-.02 12.12.8 22.04 9.42 31.37 9.46 7.95 21.33 7.44 33 7.41l5.11.03c4.6.02 9.2.03 13.81.03 4.81.01 9.63.03 14.45.05 9.12.04 18.23.06 27.35.08 16.35.04 32.7.09 49.05.16 5.74.02 11.48.03 17.22.04l10.67.03c1.66.01 3.31.01 4.97.01 2.25 0 4.5.01 6.75.02 1.26 0 2.52 0 3.82.01 2.8.13 2.8.13 3.8 1.13.1 1.58.13 3.16.13 4.74 0 1.03 0 2.06.01 3.11-.01 1.71-.01 1.71-.01 3.44 0 1.79 0 1.79.01 3.61v9.8c-.01 3.41-.01 6.83 0 10.24 0 5.73 0 11.47-.01 17.2v19.91c.01 5.69.01 11.38.01 17.07-.01 3.4-.01 6.81 0 10.21 0 3.79 0 7.58-.01 11.37 0 1.14 0 2.27.01 3.44-.01 1.54-.01 1.54-.01 3.11v2.72c-.13 2.03-.13 2.03-1.13 3.03-2.34.1-4.66.14-7.01.13-.74 0-1.48.01-2.24.01h-7.52c-1.79.01-3.58.01-5.36.01-4.88.01-9.75.01-14.63.01-4.06.01-8.13.01-12.2.01-9.6.01-19.2.01-28.81.01-9.9 0-19.8.01-29.7.03-8.49.01-16.99.02-25.49.02-5.08 0-10.15 0-15.23.01-4.78.01-9.56.01-14.34 0-1.75 0-3.5 0-5.25.01-8.32.03-16.13-.02-24.22-2.25-1.45-.17-2.91-.32-4.37-.44-7.98-.8-15.34-3.31-22.63-6.56-1.66-.57-3.33-1.13-5-1.69-11.41-4.11-21.97-10.58-32-17.31-.74-.49-1.47-.98-2.23-1.48-1.63-1.11-3.21-2.31-4.77-3.52v-2c-.54-.23-1.08-.45-1.64-.68-3.11-1.74-5.58-4.03-8.17-6.45l-1.6-1.48c-4.12-3.85-8.31-7.78-11.59-12.39v-2h-2c-11.1-13.7-20.63-30.91-25.38-47.86-.71-2.46-1.66-4.77-2.62-7.14-1.85-5.56-2.7-11.13-3.53-16.92-.41-2.95-.41-2.95-.99-5.3-.6-3.46-.62-6.83-.61-10.32v-15.22c-.01-4.89-.01-9.78 0-14.67v-15.34c-.01-8.58 0-17.16 0-25.74.01-9.94 0-19.87 0-29.8-.01-8.53-.01-17.05 0-25.57 0-5.09 0-10.19-.01-15.28 0-4.78 0-9.57.01-14.35V804.893c.02-5.58.29-6.02 5.8-6.02ZM844.93 158.862h4.43c2.53-.01 5.06-.01 7.59-.01 1.81 0 3.62 0 5.43-.01 4.93-.01 9.85-.01 14.78-.01 4.12 0 8.23 0 12.34-.01 9.71-.01 19.41-.01 29.12-.01 10.01 0 20.02-.01 30.03-.02 8.59-.02 17.18-.02 25.77-.02 5.14 0 10.27 0 15.4-.01 4.83-.01 9.66-.01 14.5-.01h5.31c8.35-.03 16.26-.05 24.37 2.25 2.52.3 5.01.49 7.54.65 3 .42 5.6 1.34 8.46 2.35 1.45.47 2.9.94 4.35 1.4 1.57.51 3.14 1.02 4.71 1.54l2.4.76c4.21 1.38 7.78 2.91 11.54 5.3 1.76.76 3.53 1.5 5.31 2.19.89.34 1.77.68 2.68 1.04.66.25 1.33.51 2.01.77v2l5 1v2c.89.18.89.18 1.8.36 3.52 1.02 6.23 3.31 9.14 5.45.61.44 1.21.88 1.84 1.33 1.75 1.27 3.49 2.56 5.22 3.86.97.72 1.94 1.45 2.94 2.2.68.59 1.36 1.19 2.06 1.8v2h2v2c.62.25 1.24.49 1.88.75 2.47 1.45 3.07 2.63 4.12 5.25h2v2h2c1.59 1.82 3.05 3.63 4.5 5.56.44.59.88 1.17 1.34 1.77 1.4 1.88 2.78 3.77 4.16 5.67.44.6.87 1.2 1.32 1.81 8.84 12.33 15.79 25.47 19.68 40.19.66 1.67 1.33 3.33 2 5 1.85 5.55 2.7 11.12 3.54 16.91.4 2.96.4 2.96.98 5.3.6 3.49.62 6.91.61 10.44v2.32c.01 2.55 0 5.1 0 7.65 0 1.84 0 3.67.01 5.5v14.91c-.01 5.2-.01 10.39 0 15.59 0 8.72 0 17.45-.01 26.17v30.29c.01 8.66.01 17.33.01 25.99-.01 5.17-.01 10.35 0 15.53 0 4.86 0 9.72-.01 14.59v5.36c.01 2.44 0 4.87 0 7.3v2.17c-.01 4.86-.01 4.86-1.13 5.98-1.55.1-3.11.12-4.67.13h-9.98c-3.22.01-6.43.01-9.65 0h-10.07c-5.64.01-11.28 0-16.92 0-6.53-.01-13.06 0-19.58 0-5.6.01-11.2.01-16.79 0h-10.04c-3.73.01-7.46 0-11.19 0H1044.67c-.88 0-1.77-.01-2.67-.01-2-.12-2-.12-3-1.12-.11-2.21-.14-4.42-.15-6.63-.01-1.05-.01-1.05-.01-2.12-.02-2.37-.02-4.74-.03-7.1-.01-1.69-.01-3.38-.02-5.07-.02-3.65-.04-7.3-.05-10.95-.02-5.78-.05-11.55-.08-17.32-.06-12.27-.11-24.54-.16-36.81-.05-13.22-.11-26.44-.18-39.65-.02-5.74-.05-11.47-.07-17.21-.01-3.58-.03-7.16-.05-10.73-.01-1.66-.01-3.31-.02-4.97-.02-7.87-.07-15.63-1.18-23.44h-2l-1-5h-2v-2l-3-1v-2c-.76-.29-1.53-.58-2.31-.88-2.69-1.12-2.69-1.12-5.69-3.12-5.31-1.59-9.95-2.25-15.52-2.27-.71-.01-1.43-.01-2.16-.02-2.37-.01-4.73-.01-7.09-.01l-5.11-.03c-3.66-.02-7.32-.03-10.97-.04-5.78-.01-11.56-.03-17.33-.06-9.13-.04-18.26-.08-27.39-.1-16.37-.06-32.75-.12-49.12-.19l-17.24-.06c-3.57-.01-7.13-.02-10.69-.04-1.66 0-3.32-.01-4.98-.01l-6.76-.03c-1.27 0-2.53 0-3.84-.01-2.8-.13-2.8-.13-3.8-1.13a72.8 72.8 0 0 1-.13-4.67V265.342c-.01-3.21-.01-6.43 0-9.64v-10.07c-.01-5.64 0-11.28 0-16.92.01-6.53 0-13.06 0-19.59-.01-5.59-.01-11.19 0-16.78 0-3.35 0-6.7-.01-10.04 0-3.73.01-7.46.01-11.19V164.672c0-.89 0-1.77.01-2.68.25-3.97 2.64-3.11 6.05-3.13ZM264.662 158.873h2.28c2.51-.01 5.01-.01 7.52 0 1.8 0 3.61-.01 5.41-.01h14.66c5.11.01 10.22 0 15.33 0 8.57 0 17.15 0 25.72.01 9.93 0 19.86 0 29.78-.01h40.82c4.78 0 9.56 0 14.34.01 1.76 0 3.52 0 5.28-.01 2.39 0 4.78 0 7.17.01.71 0 1.41 0 2.14-.01 4.77.02 4.77.02 5.89 1.14.1 1.55.12 3.11.12 4.67.01 1.01.01 2.02.01 3.06v6.92c.01 3.22.01 6.43 0 9.65v10.07c.01 5.64 0 11.28 0 16.92-.01 6.53-.01 13.05 0 19.58 0 5.6.01 11.19 0 16.79v10.04c.01 3.73 0 7.46 0 11.18v3.39c0 1.51 0 1.51-.01 3.06v2.67c-.12 2-.12 2-1.12 3-2.22.1-4.45.13-6.67.14h-2.13c-2.38.01-4.77.01-7.15.01-1.7.01-3.4.01-5.09.02l-11.02.03c-5.8.01-11.61.03-17.42.05-16.52.06-33.04.12-49.56.15-9.11.02-18.23.05-27.34.09-4.83.02-9.65.03-14.48.04-4.54 0-9.08.01-13.63.04-1.66.01-3.33.01-4.99.01-10.97-.02-20.5.24-29.52 7.42-7.06 7.45-9.24 14.46-9.27 24.56l-.02 2.17c-.01 2.38-.01 4.75-.02 7.13 0 1.72-.01 3.43-.02 5.14-.02 3.68-.03 7.36-.04 11.04-.01 5.81-.04 11.62-.06 17.43-.04 9.18-.08 18.36-.11 27.54-.05 16.47-.11 32.94-.18 49.41-.03 5.78-.04 11.56-.06 17.34-.01 3.59-.02 7.17-.04 10.76-.01 1.66-.01 3.33-.01 5l-.03 6.8c0 1.91 0 1.91-.01 3.86-.13 2.82-.13 2.82-1.13 3.82-1.56.1-3.11.12-4.67.12-1.52.01-1.52.01-3.06.01h-6.93c-3.21.01-6.43 0-9.64 0H188.712c-6.53-.01-13.06-.01-19.59 0h-26.82c-3.73.01-7.46 0-11.19 0h-3.38c-1.01 0-2.02 0-3.06-.01h-2.68c-1.99-.12-1.99-.12-2.99-1.12-.1-2.39-.14-4.74-.14-7.13v-2.29c-.01-2.55-.01-5.1-.01-7.64 0-1.82 0-3.64-.01-5.46-.01-4.96-.01-9.92-.01-14.88 0-4.14 0-8.27-.01-12.41-.01-9.77-.01-19.53-.01-29.3 0-10.07-.01-20.14-.02-30.21-.02-8.64-.02-17.29-.02-25.93 0-5.16 0-10.33-.01-15.49-.01-4.86-.01-9.72-.01-14.59v-5.34c-.01-2.44-.01-4.88 0-7.32 0-.7-.01-1.4-.02-2.12.04-4.96.97-9.15 2.27-13.89.21-1.71.38-3.42.5-5.13.34-3.92 1.11-7.17 2.5-10.87.44-1.54.88-3.09 1.31-4.63 4.5-14.93 12.13-30.95 21.69-43.37h2c.25-.54.49-1.08.75-1.63 1.55-2.96 3.28-5.67 5.25-8.37h2c.24-.57.47-1.13.72-1.71 1.57-2.81 3.49-4.77 5.78-7.04.79-.8 1.59-1.6 2.4-2.42 2.1-1.83 2.1-1.83 4.1-1.83v-2h2v-2c1.46-1.33 1.46-1.33 3.51-2.83.75-.55 1.5-1.1 2.28-1.67.81-.58 1.62-1.16 2.46-1.75.82-.59 1.65-1.19 2.5-1.79 6.16-4.35 12.38-7.84 19.25-10.96 1.77-.92 3.54-1.83 5.3-2.75 5.45-2.82 10.73-5.12 16.66-6.71 2.43-.65 4.7-1.6 7.04-2.54 5.52-1.84 11.06-2.7 16.81-3.54 1.98-.29 3.95-.61 5.91-.98 3.66-.54 7.24-.62 10.94-.61Z" />
  <style>
    path {
      fill: #000;
    }

    @media (prefers-color-scheme: dark) {
      path {
        fill: #FFF;
      }
    }
  </style>

</svg>